<svg width="31" height="31" viewBox="0 0 31 31" fill="none" xmlns="http://www.w3.org/2000/svg">
<mask id="mask0_1251_79" style="mask-type:luminance" maskUnits="userSpaceOnUse" x="0" y="0" width="31" height="31">
<path d="M0.953125 0.970703H30.9531V30.9707H0.953125V0.970703Z" fill="white"/>
</mask>
<g mask="url(#mask0_1251_79)">
<mask id="mask1_1251_79" style="mask-type:luminance" maskUnits="userSpaceOnUse" x="0" y="0" width="31" height="31">
<path d="M30.9531 0.970703H0.9531V30.9707H30.9531V0.970703Z" fill="white"/>
</mask>
<g mask="url(#mask1_1251_79)">
<path fill-rule="evenodd" clip-rule="evenodd" d="M1.3193 7.58682C0.8311 8.07498 0.8311 8.86643 1.3193 9.35459L13.1943 21.2296C13.6824 21.7177 14.4739 21.7177 14.962 21.2296L20.3281 15.8635L28.8192 24.3546C29.3074 24.8427 30.0989 24.8427 30.587 24.3546C31.0752 23.8665 31.0752 23.075 30.587 22.5868L21.212 13.2118C20.7239 12.7237 19.9324 12.7237 19.4442 13.2118L14.0781 18.578L3.087 7.58682C2.5989 7.09867 1.8074 7.09867 1.3193 7.58682Z" fill="white"/>
<path fill-rule="evenodd" clip-rule="evenodd" d="M10.9531 8.4707C10.9531 7.78035 10.3935 7.2207 9.70312 7.2207H2.20312C1.51272 7.2207 0.953125 7.78035 0.953125 8.4707V15.9707C0.953125 16.6611 1.51272 17.2207 2.20312 17.2207C2.89353 17.2207 3.45312 16.6611 3.45312 15.9707V9.7207H9.70312C10.3935 9.7207 10.9531 9.16105 10.9531 8.4707Z" fill="white"/>
</g>
</g>
</svg>
