<svg width="50" height="51" viewBox="0 0 50 51" fill="none" xmlns="http://www.w3.org/2000/svg">
<g clip-path="url(#clip0_1251_115)">
<path d="M25 50.7188C11.1929 50.7188 0 39.5259 0 25.7188C0 11.9117 11.1929 0.718811 25 0.718811C38.8071 0.718811 50 11.9117 50 25.7188C50 39.5259 38.8071 50.7188 25 50.7188Z" fill="#00CC61"/>
<mask id="mask0_1251_115" style="mask-type:luminance" maskUnits="userSpaceOnUse" x="13" y="13" width="24" height="25">
<path d="M13.1596 13.877H36.8438V37.5612H13.1596V13.877Z" fill="white"/>
</mask>
<g mask="url(#mask0_1251_115)">
<mask id="mask1_1251_115" style="mask-type:luminance" maskUnits="userSpaceOnUse" x="13" y="13" width="24" height="25">
<path d="M36.8438 13.877H13.1595V37.5612H36.8438V13.877Z" fill="white"/>
</mask>
<g mask="url(#mask1_1251_115)">
<path fill-rule="evenodd" clip-rule="evenodd" d="M13.4486 19.0996C13.0632 19.485 13.0632 20.1098 13.4486 20.4952L22.8236 29.8702C23.2089 30.2555 23.8338 30.2555 24.2192 29.8702L28.4556 25.6338L35.1591 32.3373C35.5445 32.7227 36.1693 32.7227 36.5547 32.3373C36.9401 31.9519 36.9401 31.3271 36.5547 30.9417L29.1534 23.5404C28.768 23.155 28.1432 23.155 27.7578 23.5404L23.5214 27.7768L14.8442 19.0996C14.4588 18.7142 13.8339 18.7142 13.4486 19.0996Z" fill="white"/>
<path fill-rule="evenodd" clip-rule="evenodd" d="M21.0547 19.7974C21.0547 19.2524 20.6129 18.8105 20.0678 18.8105H14.1468C13.6018 18.8105 13.16 19.2524 13.16 19.7974V25.7184C13.16 26.2635 13.6018 26.7053 14.1468 26.7053C14.6918 26.7053 15.1336 26.2635 15.1336 25.7184V20.7842H20.0678C20.6129 20.7842 21.0547 20.3424 21.0547 19.7974Z" fill="white"/>
</g>
</g>
</g>
<defs>
<clipPath id="clip0_1251_115">
<rect width="50" height="51" fill="white" transform="matrix(-1 0 0 1 50 0)"/>
</clipPath>
</defs>
</svg>
